<svg width="18" height="18" viewBox="0 0 256 262" xmlns="http://www.w3.org/2000/svg">
<path d="M255.68 133.45c0-10.45-.94-20.48-2.72-30.08H130.57v56.81h70.02c-3.03 16.26-12.18 30.05-25.8 39.31v32.58h41.74c24.44-22.53 38.51-55.89 38.51-98.62z" fill="#4285F4"></path>
<path d="M130.57 261.1c34.83 0 64.12-11.53 85.49-31.4l-41.74-32.58c-11.52 7.72-26.43 12.53-43.75 12.53-33.66 0-62.13-22.82-72.29-53.52H14.94v33.64c21.26 42.2 64.62 71.33 115.63 71.33z" fill="#34A853"></path>
<path d="M58.28 156.13a79.59 79.59 0 0 1 0-50.16V72.33H14.94a130.53 130.53 0 0 0 0 117.34l43.34-33.54z" fill="#FBBC05"></path>
<path d="M130.57 51.52c18.94 0 36.01 6.52 49.46 19.33l37.03-37.03C194.69 12.71 165.39 0 130.57 0 79.55 0 36.19 29.13 14.94 71.33l43.34 33.64c10.16-30.7 38.63-53.45 72.29-53.45z" fill="#EA4335"></path>
</svg>
